<svg height="300" viewBox="-39 -15 496 496.00044" width="300" xmlns="http://www.w3.org/2000/svg" version="1.1" xmlns:xlink="http://www.w3.org/1999/xlink" xmlns:svgjs="http://svgjs.dev/svgjs"><g width="100%" height="100%" transform="matrix(1,0,0,1,0,0)"><path d="m416.613281 32.191406c0-17.730468-14.527343-32.191406-32.382812-32.191406h-211.507813c-17.855468 0-32.382812 14.460938-32.382812 32.191406v4.476563l-120.121094 41.535156c-16.835938 5.824219-25.855469 24.257813-20.03125 41.085937l111.671875 323.886719c4.609375 13.378907 17.21875 21.824219 30.652344 21.824219 3.523437 0 7.105469-.574219 10.625-1.792969l162.042969-55.871093h68.984374c17.855469 0 32.386719-14.523438 32.386719-32.378907v-342.765625zm-32.382812 353.453125h-211.507813c-5.890625 0-10.625-4.738281-10.625-10.625v-342.828125c0-5.761718 4.734375-10.433594 10.625-10.433594h211.507813c5.886719 0 10.625 4.671876 10.625 10.433594v342.828125c0 5.824219-4.738281 10.625-10.625 10.625zm-238.132813 57.023438c-5.503906 1.917969-11.710937-1.089844-13.628906-6.527344l-111.671875-323.890625c-1.925781-5.503906 1.019531-11.519531 6.527344-13.4375l113.015625-39.039062v315.308593c0 17.855469 14.527344 32.386719 32.382812 32.386719h75.769532zm0 0" fill="#8e9fd0" fill-opacity="1" data-original-color="#000000ff" stroke="none" stroke-opacity="1"/><path d="m352.875 198.648438c-4.421875-13.378907-12.292969-25.152344-22.847656-33.921876l-12.929688-11.007812-12.414062-11.519531-12.03125-11.839844-11.582032-12.347656c-.707031-.773438-1.664062-1.152344-2.691406-1.152344-1.023437 0-1.980468.445313-2.683594 1.152344l-1.539062 1.660156c-5.503906 5.824219-10.429688 11.136719-15.675781 16.386719-10.308594 10.363281-21.25 19.835937-31.554688 28.667968-10.6875 8.898438-18.621093 20.675782-22.976562 33.921876-6.269531 20.796874 2.179687 43.515624 20.484375 55.226562 5.566406 3.328125 11.707031 4.929688 17.855468 4.929688 7.675782 0 15.355469-2.5625 21.820313-7.617188.703125-.574219 1.726563-.640625 2.492187-.125.773438.507812 1.152344 1.40625.964844 2.296875-2.242187 9.347656-5.699218 19.136719-10.304687 29.121094-.898438 1.917969-.703125 4.097656.515625 6.015625 1.214844 1.917968 3.386718 3.140625 5.5 3.140625h30.464844c2.042968 0 4.03125-1.152344 5.3125-3.140625 1.214843-1.917969 1.40625-4.097656.511718-6.015625-4.546875-9.984375-8.003906-19.773438-10.308594-29.121094-.191406-.890625.128907-1.789063.960938-2.296875.769531-.515625 1.792969-.449219 2.496094.125 6.402344 5.054688 14.082031 7.617188 21.824218 7.617188 6.144532 0 12.347657-1.664063 17.921876-4.929688 18.234374-11.710938 26.617187-34.429688 20.414062-55.226562zm0 0" fill="#8e9fd0" fill-opacity="1" data-original-color="#000000ff" stroke="none" stroke-opacity="1"/><path d="m199.921875 64.761719c1.28125 0 2.558594-.316407 3.710937-1.019531 3.773438-2.367188 5.503907-6.976563 4.222657-11.199219-.765625-2.433594-2.429688-4.800781-4.542969-6.71875l-4.605469-4.289063-4.609375-4.542968c-.511718-.515626-1.34375-.515626-1.855468 0l-9.28125 8.832031c-1.597657 1.59375-3.519532 3.835937-4.476563 6.71875-1.28125 4.222656.441406 8.832031 4.160156 11.199219 1.214844.703124 2.558594 1.089843 3.835938 1.089843 1.40625 0 2.816406-.449219 4.03125-1.285156-.449219 1.601563-1.152344 3.140625-1.789063 4.609375l-.191406.449219c-.257812.574219-.195312 1.214843.125 1.792969.320312.511718 1.023438.828124 1.667969.828124h5.753906c.703125 0 1.152344-.191406 1.601563-.703124.515624-.574219.386718-1.40625.128906-1.980469-.703125-1.601563-1.34375-3.269531-1.792969-4.996094 1.152344.769531 2.496094 1.214844 3.90625 1.214844zm0 0" fill="#8e9fd0" fill-opacity="1" data-original-color="#000000ff" stroke="none" stroke-opacity="1"/><path d="m69.816406 127.289062c3.007813-2.945312 3.199219-7.679687.382813-10.816406-2.304688-2.558594-5.953125-3.261718-8.960938-1.980468.511719-2.367188-.128906-5.058594-1.792969-6.976563-2.109374-2.433594-5.5-3.394531-8.574218-2.304687-3.007813 1.085937-5.121094 3.96875-5.183594 7.167968-.0625 2.5625 1.089844 4.925782 2.945312 6.460938-3.199218.898437-5.566406 3.710937-5.695312 7.167968-.195312 4.226563 2.875 7.808594 7.105469 8.195313h.703125c3.132812 0 5.824218-1.917969 7.039062-4.738281.191406 3.261718-1.023437 6.464844-3.390625 8.703125-.449219.449219-.578125 1.152343-.261719 1.664062.261719.449219.773438.703125 1.21875.703125.128907 0 .320313 0 .449219-.0625l13.441407-4.863281c.574218-.191406.890624-.832031.828124-1.472656-.0625-.636719-.640624-1.085938-1.214843-1.152344-3.324219-.257813-6.207031-1.789063-8.0625-4.351563 1.152343.574219 2.367187.898438 3.648437.898438 1.980469-.066406 3.902344-.769531 5.375-2.242188zm0 0" fill="#8e9fd0" fill-opacity="1" data-original-color="#000000ff" stroke="none" stroke-opacity="1"/><path d="m373.542969 344.621094c-2.496094-1.46875-5.566407-1.34375-7.871094.386718.449219-1.539062 1.085937-3.074218 1.789063-4.546874l.261718-.511719c.253906-.578125.1875-1.28125-.132812-1.792969-.445313-.703125-1.085938-.703125-1.46875-.703125h-5.890625c-.378907 0-1.214844 0-1.664063.703125-.316406.511719-.316406 1.152344-.0625 1.792969.832032 1.789062 1.472656 3.328125 1.917969 4.992187-2.363281-1.664062-5.375-1.855468-7.871094-.382812-3.710937 2.429687-5.4375 7.039062-4.160156 11.199218.835937 2.558594 2.433594 4.925782 4.609375 6.71875 3.457031 2.878907 6.527344 6.140626 9.148438 8.960938.261718.257812.640624.449219.964843.449219.382813 0 .703125-.128907.960938-.449219 3.324219-3.648438 6.269531-6.53125 9.214843-8.960938 2.113282-1.792968 3.710938-4.097656 4.542969-6.71875 1.214844-4.097656-.511719-8.707031-4.289062-11.136718zm0 0" fill="#8e9fd0" fill-opacity="1" data-original-color="#000000ff" stroke="none" stroke-opacity="1"/></g></svg>