<svg id="Capa_1" enable-background="new 0 0 508.5 508.5" height="300" viewBox="0 0 508.5 508.5" width="300" xmlns="http://www.w3.org/2000/svg" version="1.1" xmlns:xlink="http://www.w3.org/1999/xlink" xmlns:svgjs="http://svgjs.dev/svgjs"><g width="100%" height="100%" transform="matrix(1,0,0,1,0,0)"><g><path d="m166.801 198.124c0-17.891-14.556-32.447-32.446-32.447-17.892 0-32.447 14.556-32.447 32.447s14.556 32.446 32.447 32.446c17.89 0 32.446-14.555 32.446-32.446zm-32.447 17.446c-9.62 0-17.447-7.826-17.447-17.446s7.827-17.447 17.447-17.447 17.446 7.827 17.446 17.447c.001 9.62-7.826 17.446-17.446 17.446z" fill="#8e9fd0" fill-opacity="1" data-original-color="#000000ff" stroke="none" stroke-opacity="1"/><path d="m374.146 230.57c17.891 0 32.446-14.555 32.446-32.446s-14.556-32.447-32.446-32.447c-17.891 0-32.446 14.556-32.446 32.447s14.556 32.446 32.446 32.446zm0-49.893c9.62 0 17.446 7.827 17.446 17.447s-7.826 17.446-17.446 17.446-17.446-7.826-17.446-17.446 7.826-17.447 17.446-17.447z" fill="#8e9fd0" fill-opacity="1" data-original-color="#000000ff" stroke="none" stroke-opacity="1"/><path d="m402.363 446.901h-36.878l-13.689-38.135c34.397-17.436 63.533-43.722 84.422-76.298 22.274-34.735 34.048-75.004 34.048-116.454 0-57.7-22.47-111.946-63.27-152.746s-95.046-63.268-152.746-63.268c-28.199 0-55.627 5.354-81.523 15.915-3.836 1.564-5.677 5.941-4.112 9.777 1.564 3.836 5.944 5.676 9.776 4.113 24.089-9.824 49.611-14.805 75.859-14.805 110.841 0 201.016 90.175 201.016 201.015 0 38.573-10.953 76.042-31.675 108.357-19.105 29.795-45.614 53.948-76.9 70.174l-5.604-15.612c28.357-15.141 52.333-37.428 69.509-64.722 18.486-29.373 28.257-63.329 28.257-98.197 0-101.79-82.812-184.603-184.603-184.603s-184.603 82.813-184.603 184.603c0 35.083 9.884 69.216 28.582 98.711 17.166 27.077 41.006 49.177 69.18 64.219l-5.605 15.614c-31.116-16.136-57.497-40.122-76.592-69.717-20.919-32.424-31.976-70.056-31.976-108.827 0-35.583 9.418-70.542 27.235-101.1 17.297-29.666 42.066-54.585 71.63-72.063 3.565-2.108 4.747-6.708 2.639-10.273-2.107-3.566-6.707-4.746-10.273-2.639-31.76 18.778-58.37 45.549-76.953 77.42-19.153 32.849-29.277 70.421-29.277 108.656 0 41.662 11.886 82.105 34.373 116.958 20.879 32.362 49.874 58.475 84.088 75.815l-13.681 38.113h-36.877c-20.121 0-36.49 16.369-36.49 36.49v17.608c0 4.142 3.357 7.5 7.5 7.5h230.945c4.143 0 7.5-3.358 7.5-7.5s-3.357-7.5-7.5-7.5h-223.448v-10.109c0-11.85 9.641-21.49 21.49-21.49h296.226c11.85 0 21.489 9.64 21.489 21.49v10.109h-85.76c-4.143 0-7.5 3.358-7.5 7.5s3.357 7.5 7.5 7.5h93.26c4.143 0 7.5-3.358 7.5-7.5v-17.609c0-20.12-16.369-36.49-36.489-36.49zm-226.001-92.897c-1.649.507-3.366.764-5.124.764-9.62 0-17.447-7.827-17.447-17.447s7.827-17.446 17.447-17.446c5.862 0 11.344 2.978 14.562 7.837zm26.134-74.608c-2.247 1.01-4.65 1.522-7.142 1.522-9.62 0-17.447-7.827-17.447-17.447s7.827-17.446 17.447-17.446c6.96 0 13.227 4.115 16.003 10.491l-8.11 22.591c-.252.083-.503.178-.751.289zm24.305-67.358c0-15.136 12.313-27.449 27.449-27.449s27.449 12.314 27.449 27.449-12.313 27.449-27.449 27.449-27.449-12.313-27.449-27.449zm70.542 45.034c2.867-6.105 9.059-10.047 15.804-10.047 9.62 0 17.446 7.826 17.446 17.446s-7.826 17.447-17.446 17.447c-2.628 0-5.147-.573-7.492-1.691zm28.99 80.761c1.641-8.103 8.778-13.958 17.09-13.958 9.62 0 17.446 7.826 17.446 17.446 0 2.233-.414 4.404-1.229 6.451-.193.484-.332.976-.419 1.469-7.295 5.754-15.071 10.914-23.256 15.422zm60.884-35.151c-9.62 0-17.446-7.826-17.446-17.446s7.826-17.447 17.446-17.447 17.446 7.827 17.446 17.447c0 9.619-7.826 17.446-17.446 17.446zm-285.38-20.447c0-9.62 7.827-17.447 17.447-17.447s17.446 7.827 17.446 17.447-7.826 17.446-17.446 17.446-17.447-7.826-17.447-17.446zm14.367 32.296c1.014.096 2.041.15 3.08.15 17.891 0 32.446-14.555 32.446-32.446s-14.556-32.447-32.446-32.447c-11.54 0-21.684 6.06-27.438 15.159-4.74-15.763-7.199-32.227-7.199-48.933 0-93.519 76.083-169.603 169.603-169.603s169.603 76.083 169.603 169.603c0 18.177-2.896 36.08-8.496 53.098-5.605-9.744-16.115-16.325-28.139-16.325-17.891 0-32.446 14.556-32.446 32.447s14.556 32.446 32.446 32.446c.969 0 1.927-.051 2.875-.134-4.575 6.114-9.542 11.898-14.869 17.321-3-14.81-16.118-25.994-31.8-25.994-9.29 0-17.797 3.936-23.77 10.35l-8.022-22.349c.504.023 1.008.042 1.516.042 17.891 0 32.446-14.556 32.446-32.447s-14.556-32.446-32.446-32.446c-8.172 0-15.896 3.124-21.769 8.43l-1.777-4.95c4.48-6.727 7.099-14.795 7.099-23.466 0-23.407-19.043-42.449-42.449-42.449s-42.449 19.042-42.449 42.449c0 8.671 2.618 16.74 7.099 23.467l-1.497 4.171c-5.882-5.45-13.692-8.651-22.048-8.651-17.892 0-32.447 14.555-32.447 32.446s14.556 32.447 32.447 32.447c.629 0 1.256-.021 1.879-.057l-5.783 16.11c-5.667-4.508-12.771-7.097-20.212-7.097-17.892 0-32.447 14.555-32.447 32.446 0 1.028.054 2.043.147 3.047-8.406-7.795-16.027-16.444-22.737-25.835zm121.365 16.317 11.806-32.888c1.111-3.095 3.779-3.43 4.875-3.43h.001c1.095 0 3.763.334 4.874 3.43l30.162 84.025c-11.464 2.405-23.221 3.632-35.037 3.632-.323 0-.645-.013-.968-.015 5.97-5.888 9.679-14.062 9.679-23.09 0-15.467-10.883-28.433-25.392-31.664zm-5.143 14.329c8.724.956 15.535 8.363 15.535 17.336 0 9.62-7.826 17.447-17.446 17.447-3.405 0-6.724-1.013-9.548-2.861zm-18.326 51.052c13.119 2.909 26.6 4.388 40.15 4.388 13.549 0 27.031-1.487 40.148-4.395l5.592 15.578c-14.92 3.469-30.275 5.229-45.74 5.229s-30.815-1.765-45.738-5.235zm-10.689 29.776c16.57 3.996 33.641 6.025 50.839 6.025 17.196 0 34.271-2.03 50.838-6.025l7.501 20.897h-116.679zm125.115 20.896-55.283-154.009c-2.914-8.117-10.368-13.361-18.992-13.362 0 0 0 0-.001 0-8.623 0-16.079 5.245-18.992 13.362l-55.284 154.009h-21.021l71.658-199.624c6.761 4.55 14.895 7.21 23.64 7.21s16.879-2.66 23.64-7.21l71.658 199.624z" fill="#8e9fd0" fill-opacity="1" data-original-color="#000000ff" stroke="none" stroke-opacity="1"/></g></g></svg>