<svg xmlns="http://www.w3.org/2000/svg" xmlns:xlink="http://www.w3.org/1999/xlink" viewBox="0 0 31.8 27.26"><defs><style>.cls-1{fill:#fff;}.cls-2,.cls-21{fill:none;}.cls-3{clip-path:url(#clip-path);}.cls-4{mask:url(#mask);}.cls-5{mask:url(#mask-2);}.cls-6{fill:#b8771d;fill-rule:evenodd;}.cls-7{mask:url(#mask-5);}.cls-8{fill:url(#linear-gradient);}.cls-9{opacity:0.31;}.cls-10{mask:url(#mask-8);}.cls-11{mask:url(#mask-9);}.cls-12{mask:url(#mask-11);}.cls-13{fill:url(#radial-gradient);}.cls-14{fill:url(#radial-gradient-2);}.cls-15{fill:url(#radial-gradient-3);}.cls-16{fill:url(#radial-gradient-4);}.cls-17{fill:url(#radial-gradient-5);}.cls-18{fill:url(#radial-gradient-6);}.cls-19{fill:url(#radial-gradient-7);}.cls-20{fill:url(#linear-gradient-2);}.cls-21{stroke-miterlimit:10;stroke:url(#linear-gradient-3);}</style><clipPath id="clip-path" transform="translate(-2.43 -6.31)"><rect class="cls-2" width="40" height="40"/></clipPath><mask id="mask" x="1.57" y="-2.31" width="32" height="32" maskUnits="userSpaceOnUse"><g transform="translate(-2.43 -6.31)"><g id="mask0_3234_2357" data-name="mask0 3234 2357"><path class="cls-1" d="M36,4H4V36H36Z"/></g></g></mask><mask id="mask-2" x="1.57" y="-2.31" width="32" height="32" maskUnits="userSpaceOnUse"><g transform="translate(-2.43 -6.31)"><g id="mask1_3234_2357" data-name="mask1 3234 2357"><path class="cls-1" d="M36,4H4V36H36Z"/></g></g></mask><mask id="mask-5" x="4.4" y="0.12" width="26.35" height="26.35" maskUnits="userSpaceOnUse"><g transform="translate(-2.43 -6.31)"><g id="mask4_3234_2357" data-name="mask4 3234 2357"><path class="cls-1" d="M6.83,19.61A13.17,13.17,0,1,0,20,6.43,13.17,13.17,0,0,0,6.83,19.61Z"/></g></g></mask><linearGradient id="linear-gradient" x1="20" y1="32.01" x2="20" y2="-3.43" gradientTransform="matrix(1, 0, 0, -1, 0, 42)" gradientUnits="userSpaceOnUse"><stop offset="0" stop-color="#f8971d"/><stop offset="0.18" stop-color="#f8971d"/><stop offset="0.3" stop-color="#f1d036"/><stop offset="0.42" stop-color="#faf06e"/><stop offset="0.62" stop-color="#fbf7bf"/><stop offset="0.7" stop-color="#f6ce41"/><stop offset="0.88" stop-color="#f0a31f"/><stop offset="1" stop-color="#f0a31f"/></linearGradient><mask id="mask-8" x="7.27" y="1" width="13.37" height="6.83" maskUnits="userSpaceOnUse"><g transform="translate(-2.43 -6.31)"><g id="mask7_3234_2357" data-name="mask7 3234 2357"><path class="cls-1" d="M23.07,7.31H9.7v6.83H23.07Z"/></g></g></mask><mask id="mask-9" x="7.27" y="5.58" width="1.84" height="2.25" maskUnits="userSpaceOnUse"><g transform="translate(-2.43 -6.31)"><g id="mask8_3234_2357" data-name="mask8 3234 2357"><path class="cls-1" d="M11.53,11.89H9.7v2.25h1.83Z"/></g></g></mask><mask id="mask-11" x="9.1" y="0.99" width="11.55" height="4.55" maskUnits="userSpaceOnUse"><g transform="translate(-2.43 -6.31)"><g id="mask10_3234_2357" data-name="mask10 3234 2357"><path class="cls-1" d="M23.07,7.31H11.52v4.54H23.07Z"/></g></g></mask><radialGradient id="radial-gradient" cx="-823.94" cy="2640.68" r="1" gradientTransform="matrix(3.7, 6.91, 0.25, -0.13, 2408.59, 6052.98)" gradientUnits="userSpaceOnUse"><stop offset="0" stop-color="#fff"/><stop offset="0.08" stop-color="#fff" stop-opacity="0.8"/><stop offset="0.18" stop-color="#fff" stop-opacity="0.7"/><stop offset="0.29" stop-color="#fff" stop-opacity="0.5"/><stop offset="0.41" stop-color="#fff" stop-opacity="0.3"/><stop offset="0.53" stop-color="#fff" stop-opacity="0.25"/><stop offset="0.66" stop-color="#fff" stop-opacity="0.1"/><stop offset="0.81" stop-color="#fff" stop-opacity="0.06"/><stop offset="1" stop-color="#fff" stop-opacity="0"/></radialGradient><radialGradient id="radial-gradient-2" cx="-864.62" cy="-2657.42" r="1" gradientTransform="matrix(6.91, -3.7, -0.13, -0.25, 5629.18, -3844.45)" xlink:href="#radial-gradient"/><radialGradient id="radial-gradient-3" cx="-749.49" cy="683.35" r="1" gradientTransform="matrix(2.25, 4.19, 4.19, -2.25, -1169.37, 4691.75)" gradientUnits="userSpaceOnUse"><stop offset="0" stop-color="#fff"/><stop offset="0.08" stop-color="#fff" stop-opacity="0.7"/><stop offset="0.18" stop-color="#fff" stop-opacity="0.6"/><stop offset="0.32" stop-color="#fff" stop-opacity="0.5"/><stop offset="0.45" stop-color="#fff" stop-opacity="0.4"/><stop offset="0.6" stop-color="#fff" stop-opacity="0.26"/><stop offset="0.77" stop-color="#fff" stop-opacity="0.16"/><stop offset="0.92" stop-color="#fff" stop-opacity="0"/><stop offset="1" stop-color="#fff" stop-opacity="0.08"/></radialGradient><radialGradient id="radial-gradient-4" cx="-294.98" cy="976.92" r="1" gradientTransform="matrix(0.66, 1.23, 1.23, -0.66, -1000.3, 1023.03)" gradientUnits="userSpaceOnUse"><stop offset="0" stop-color="#fff"/><stop offset="0.08" stop-color="#fff" stop-opacity="0.31"/><stop offset="0.18" stop-color="#fff" stop-opacity="0.51"/><stop offset="0.32" stop-color="#fff" stop-opacity="0.61"/><stop offset="0.45" stop-color="#fff" stop-opacity="0.3"/><stop offset="0.6" stop-color="#fff" stop-opacity="0.35"/><stop offset="0.76" stop-color="#fff" stop-opacity="0.29"/><stop offset="0.9" stop-color="#fff" stop-opacity="0.1"/><stop offset="1" stop-color="#fff" stop-opacity="0"/></radialGradient><radialGradient id="radial-gradient-5" cx="-929.15" cy="6881.39" r="1" gradientTransform="matrix(-2.11, 4.25, 0.15, 0.08, -2979.69, 3457.29)" xlink:href="#radial-gradient"/><radialGradient id="radial-gradient-6" cx="-713.11" cy="287.47" r="1" gradientTransform="matrix(4.25, 2.11, 0.08, -0.15, 3038.69, 1580.1)" xlink:href="#radial-gradient"/><radialGradient id="radial-gradient-7" cx="-922.71" cy="933.01" r="1" gradientTransform="matrix(-1.28, 2.58, 2.58, 1.28, -3560.97, 1212.61)" xlink:href="#radial-gradient-3"/><linearGradient id="linear-gradient-2" x1="20" y1="14.49" x2="20" y2="22.6" gradientUnits="userSpaceOnUse"><stop offset="0" stop-color="#764c27"/><stop offset="0.22" stop-color="#754c29"/><stop offset="0.59" stop-color="#603913"/><stop offset="0.83" stop-color="#3c2415"/><stop offset="0.94" stop-color="#3c2415"/><stop offset="1" stop-color="#3c2415"/></linearGradient><linearGradient id="linear-gradient-3" x1="17.57" y1="4.14" x2="17.57" y2="22.81" xlink:href="#linear-gradient-2"/></defs><g id="Layer_2" data-name="Layer 2"><g id="Layer_1-2" data-name="Layer 1"><g class="cls-3"><g class="cls-4"><g class="cls-5"><g class="cls-5"><path class="cls-6" d="M20,7.22A13.18,13.18,0,1,1,6.83,20.39,13.17,13.17,0,0,1,20,7.22Z" transform="translate(-2.43 -6.31)"/></g></g><g class="cls-5"><g class="cls-7"><path class="cls-8" d="M33.18,6.43H6.83V32.78H33.18Z" transform="translate(-2.43 -6.31)"/></g></g><g class="cls-5"><g class="cls-5"><g class="cls-9"><g class="cls-10"><g class="cls-11"><path class="cls-1" d="M11.32,12c-.29-.21-.75-.08-1.25.63S9.62,13.81,9.9,14s.79.12,1.2-.53C11.66,12.63,11.61,12.19,11.32,12Z" transform="translate(-2.43 -6.31)"/></g></g><g class="cls-10"><g class="cls-12"><path class="cls-1" d="M15.8,8.1a9.66,9.66,0,0,0-4.12,2.73c-.36.51-.08,1.21.71,1A5.8,5.8,0,0,0,13.65,11a15.46,15.46,0,0,1,6.62-2.68c1.9-.32,2.83-.16,2.8-.4C23,7.28,19.2,6.86,15.8,8.1Z" transform="translate(-2.43 -6.31)"/></g></g></g></g></g></g><path class="cls-13" d="M12.92,20.12A56.26,56.26,0,0,1,9,13.35a54.59,54.59,0,0,1-3.45-7,56.93,56.93,0,0,1,4,6.78A54.86,54.86,0,0,1,12.92,20.12Z" transform="translate(-2.43 -6.31)"/><path class="cls-14" d="M16.24,9.14a57.26,57.26,0,0,1-6.77,3.95,55.32,55.32,0,0,1-7,3.45A54.73,54.73,0,0,1,9.2,12.59,55.32,55.32,0,0,1,16.24,9.14Z" transform="translate(-2.43 -6.31)"/><path class="cls-15" d="M11.34,17.16a4.76,4.76,0,1,1,1.94-6.44A4.74,4.74,0,0,1,11.34,17.16Z" transform="translate(-2.43 -6.31)"/><path class="cls-16" d="M9.75,14.2a1.4,1.4,0,1,1,.57-1.89A1.39,1.39,0,0,1,9.75,14.2Z" transform="translate(-2.43 -6.31)"/><path class="cls-17" d="M27.64,32.9a32,32,0,0,1,2-4.33,33,33,0,0,1,2.27-4.17,34.58,34.58,0,0,1-2,4.33A33.78,33.78,0,0,1,27.64,32.9Z" transform="translate(-2.43 -6.31)"/><path class="cls-18" d="M34.23,30.69a35.33,35.33,0,0,1-4.33-2,34.58,34.58,0,0,1-4.17-2.27,33.58,33.58,0,0,1,4.33,2A33,33,0,0,1,34.23,30.69Z" transform="translate(-2.43 -6.31)"/><path class="cls-19" d="M28.55,31.08a2.88,2.88,0,1,1,3.86-1.3A2.88,2.88,0,0,1,28.55,31.08Z" transform="translate(-2.43 -6.31)"/></g><path class="cls-20" d="M22.12,19.33a2.87,2.87,0,0,1,1.4,1.07,3,3,0,0,1,.54,1.82,2.73,2.73,0,0,1-1.16,2.31,4.77,4.77,0,0,1-2.92.86,4.66,4.66,0,0,1-2.89-.87,2.74,2.74,0,0,1-1.15-2.3,3,3,0,0,1,.54-1.81,3.11,3.11,0,0,1,1.4-1.08h0a2.11,2.11,0,0,1-.94-.85,2.57,2.57,0,0,1-.38-1.37,2.58,2.58,0,0,1,1-2.16A3.88,3.88,0,0,1,20,14.18a3.93,3.93,0,0,1,2.47.76,2.58,2.58,0,0,1,1,2.16,2.49,2.49,0,0,1-.37,1.35,2.15,2.15,0,0,1-.93.87ZM20,23a1,1,0,0,0,.8-.35,1.27,1.27,0,0,0,.31-.87,1.16,1.16,0,0,0-.31-.83,1.05,1.05,0,0,0-.8-.34,1,1,0,0,0-.79.34,1.16,1.16,0,0,0-.31.83,1.23,1.23,0,0,0,.32.87A1,1,0,0,0,20,23Zm0-6.6a.72.72,0,0,0-.58.28,1,1,0,0,0-.24.67.91.91,0,0,0,.24.64.77.77,0,0,0,.58.26.81.81,0,0,0,.6-.26.91.91,0,0,0,.24-.64,1,1,0,0,0-.23-.67A.75.75,0,0,0,20,16.42Z" transform="translate(-2.43 -6.31)"/><circle class="cls-21" cx="17.57" cy="13.48" r="8.83"/></g></g></svg>